<mxfile host="app.diagrams.net" modified="2024-03-05T18:01:28.769Z" agent="Mozilla/5.0 (Windows NT 10.0; Win64; x64) AppleWebKit/537.36 (KHTML, like Gecko) Chrome/122.0.0.0 Safari/537.36" version="24.0.0" etag="pSoW3dG-ZfEQoNU5VD15" type="github">
  <diagram name="Page-1" id="A107fLmOZx12ZF9WY5yh">
    <mxGraphModel>
      <root>
        <mxCell id="0" />
        <mxCell id="1" parent="0" />
      </root>
    </mxGraphModel>
  </diagram>
</mxfile>
